<svg id="svg" xmlns="http://www.w3.org/2000/svg" xmlns:xlink="http://www.w3.org/1999/xlink" width="400" height="138" viewBox="0, 0, 400,138"><g id="svgg"><path id="path0" d="M330.080 2.772 C 322.289 5.910,322.106 7.210,321.635 62.695 C 321.097 126.116,321.654 128.495,337.117 128.835 C 352.989 129.185,353.103 128.726,353.103 64.625 L 353.103 10.759 348.414 6.069 C 343.494 1.150,337.005 -0.017,330.080 2.772 M371.388 2.725 C 363.003 6.296,362.769 8.024,362.764 66.530 L 362.759 119.956 366.739 124.412 C 372.292 130.626,384.136 130.973,390.018 125.094 L 393.793 121.321 394.483 70.151 C 395.211 16.094,394.706 10.022,389.049 4.904 C 385.885 2.040,375.891 0.807,371.388 2.725 M32.414 10.320 C 28.621 11.344,24.596 12.390,23.471 12.643 C 19.251 13.592,8.684 24.923,7.106 30.190 C 1.247 49.746,10.284 62.197,35.862 69.808 C 68.600 79.549,71.557 81.084,68.127 86.552 C 65.448 90.821,53.870 90.430,39.796 85.595 C 15.068 77.101,1.364 82.593,1.384 100.990 C 1.423 134.938,91.301 140.104,100.579 106.691 C 107.450 81.944,97.173 68.810,64.093 60.063 C 42.015 54.225,38.621 52.727,38.621 48.817 C 38.621 41.892,47.425 41.170,68.775 46.344 C 89.632 51.400,98.046 47.507,98.270 32.699 C 98.558 13.617,63.862 1.827,32.414 10.320 M266.005 43.245 C 229.126 51.370,222.122 108.009,255.928 124.743 C 287.667 140.454,329.230 118.942,310.496 96.500 C 306.021 91.139,304.035 90.918,279.877 93.089 C 268.580 94.105,267.892 94.006,265.050 90.955 C 259.104 84.573,260.330 84.138,284.244 84.138 L 306.419 84.138 310.451 80.106 C 327.922 62.635,296.454 36.538,266.005 43.245 M107.289 44.902 C 102.858 47.307,100.025 55.902,101.480 62.529 C 103.505 71.757,117.568 111.310,120.778 116.806 C 132.115 136.218,154.975 133.181,161.619 111.379 C 163.622 104.806,164.679 104.865,166.716 111.666 C 172.766 131.858,198.822 135.471,210.932 117.797 C 218.580 106.636,231.727 71.235,231.719 61.826 C 231.706 46.954,218.627 39.059,204.574 45.439 C 192.743 50.811,191.400 62.754,201.054 76.758 C 211.493 91.901,212.351 102.288,203.238 103.179 C 197.314 103.758,195.104 99.681,186.295 71.923 C 177.943 45.601,175.913 42.759,165.462 42.759 C 149.751 42.759,146.922 53.116,155.405 79.578 C 161.085 97.297,160.864 102.408,154.385 103.169 C 148.893 103.813,146.955 100.334,138.003 73.770 C 127.496 42.587,121.660 37.102,107.289 44.902 M286.475 73.676 C 291.825 78.281,290.590 78.782,275.005 78.328 L 261.379 77.931 265.110 74.138 C 270.217 68.945,280.714 68.717,286.475 73.676 " stroke="none" fill="#24796a" fill-rule="evenodd"></path></g></svg>