<svg width="17" height="21" viewBox="0 0 17 21" role="img" xmlns="http://www.w3.org/2000/svg" aria-labelledby="accountTitle">
    <title id="accountTitle">account icon</title>
    <path d="M16.125 21H14.125V19C14.125 18.2044 13.8089 17.4413 13.2463 16.8787C12.6837 16.3161 11.9206 16 11.125 16H5.125C4.32935 16 3.56629 16.3161 3.00368 16.8787C2.44107 17.4413 2.125 18.2044 2.125 19V21H0.125V19C0.125 17.6739 0.651784 16.4021 1.58947 15.4645C2.52715 14.5268 3.79892 14 5.125 14H11.125C12.4511 14 13.7229 14.5268 14.6605 15.4645C15.5982 16.4021 16.125 17.6739 16.125 19V21ZM8.125 12C7.33707 12 6.55685 11.8448 5.8289 11.5433C5.10095 11.2417 4.43951 10.7998 3.88236 10.2426C3.32521 9.68549 2.88325 9.02405 2.58172 8.2961C2.28019 7.56815 2.125 6.78793 2.125 6C2.125 5.21207 2.28019 4.43185 2.58172 3.7039C2.88325 2.97595 3.32521 2.31451 3.88236 1.75736C4.43951 1.20021 5.10095 0.758251 5.8289 0.456723C6.55685 0.155195 7.33707 -1.17411e-08 8.125 0C9.7163 2.37122e-08 11.2424 0.632141 12.3676 1.75736C13.4929 2.88258 14.125 4.4087 14.125 6C14.125 7.5913 13.4929 9.11742 12.3676 10.2426C11.2424 11.3679 9.7163 12 8.125 12ZM8.125 10C9.18587 10 10.2033 9.57857 10.9534 8.82843C11.7036 8.07828 12.125 7.06087 12.125 6C12.125 4.93913 11.7036 3.92172 10.9534 3.17157C10.2033 2.42143 9.18587 2 8.125 2C7.06413 2 6.04672 2.42143 5.29657 3.17157C4.54643 3.92172 4.125 4.93913 4.125 6C4.125 7.06087 4.54643 8.07828 5.29657 8.82843C6.04672 9.57857 7.06413 10 8.125 10Z" />
</svg>
