<svg width="49" height="20" viewBox="0 0 49 20" role="img" xmlns="http://www.w3.org/2000/svg" aria-labelledby="appleTitle">
  <title id="appleTitle">apple pay icon</title>
  <g clip-path="url(#clip0_897_18756)">
    <path d="M9.19026 2.5785C8.61938 3.25404 7.70596 3.78687 6.79255 3.71075C6.67837 2.79734 7.12556 1.82683 7.64887 1.2274C8.21976 0.532826 9.21881 0.038059 10.0276 0C10.1227 0.951475 9.75163 1.88392 9.19026 2.5785ZM10.018 3.89153C8.6955 3.81541 7.56324 4.6432 6.93527 4.6432C6.29778 4.6432 5.33679 3.92959 4.29017 3.94862C2.92956 3.96765 1.6641 4.73834 0.96952 5.96575C-0.457692 8.42055 0.598445 12.0552 1.97808 14.0533C2.65363 15.0428 3.46238 16.1275 4.52804 16.0894C5.5366 16.0514 5.93622 15.4329 7.15411 15.4329C8.38151 15.4329 8.73355 16.0894 9.79921 16.0704C10.9029 16.0514 11.5975 15.0809 12.273 14.0913C13.0437 12.9686 13.3577 11.8744 13.3768 11.8173C13.3577 11.7983 11.2454 10.9895 11.2264 8.55376C11.2074 6.5176 12.8915 5.5471 12.9676 5.49001C12.0161 4.08183 10.5318 3.92959 10.018 3.89153ZM17.6584 1.13225V15.9657H19.961V10.8944H23.1484C26.0599 10.8944 28.1056 8.89629 28.1056 6.00381C28.1056 3.11132 26.098 1.13225 23.2245 1.13225H17.6584ZM19.961 3.07326H22.6156C24.6137 3.07326 25.7554 4.13892 25.7554 6.01332C25.7554 7.88773 24.6137 8.96289 22.6061 8.96289H19.961V3.07326ZM32.3111 16.0799C33.7573 16.0799 35.0989 15.3473 35.7079 14.1865H35.7554V15.9657H37.8867V8.5823C37.8867 6.44148 36.1741 5.06185 33.5385 5.06185C31.0932 5.06185 29.2854 6.46051 29.2188 8.38249H31.293C31.4643 7.46908 32.3111 6.86965 33.4719 6.86965C34.8801 6.86965 35.6698 7.52617 35.6698 8.73454V9.55281L32.7964 9.72407C30.1227 9.88582 28.6765 10.98 28.6765 12.883C28.6765 14.8049 30.1703 16.0799 32.3111 16.0799ZM32.9296 14.3197C31.7022 14.3197 30.9219 13.7298 30.9219 12.8259C30.9219 11.8934 31.6736 11.3511 33.1103 11.2655L35.6698 11.1037V11.941C35.6698 13.3302 34.49 14.3197 32.9296 14.3197ZM40.7317 20C42.9771 20 44.0333 19.1437 44.9562 16.5461L49 5.20457H46.6593L43.9476 13.9677H43.9001L41.1884 5.20457H38.7811L42.6822 16.0038L42.4728 16.6603C42.1208 17.7736 41.5499 18.2017 40.5318 18.2017C40.3511 18.2017 39.999 18.1827 39.8563 18.1637V19.9429C39.9895 19.981 40.5604 20 40.7317 20Z" />
  </g>
  <defs>
    <clipPath id="clip0_897_18756">
      <rect width="48.7155" height="20" fill="white" transform="translate(0.284485)" />
    </clipPath>
  </defs>
</svg>
