<svg width="19" height="21" viewBox="0 0 19 21" role="img" xmlns="http://www.w3.org/2000/svg" aria-labelledby="cartTitle">
    <title id="cartTitle">cart icon</title>
    <path d="M4.375 7V5C4.375 3.67392 4.90178 2.40215 5.83947 1.46447C6.77715 0.526784 8.04892 0 9.375 0C10.7011 0 11.9729 0.526784 12.9105 1.46447C13.8482 2.40215 14.375 3.67392 14.375 5V7H17.375C17.6402 7 17.8946 7.10536 18.0821 7.29289C18.2696 7.48043 18.375 7.73478 18.375 8V20C18.375 20.2652 18.2696 20.5196 18.0821 20.7071C17.8946 20.8946 17.6402 21 17.375 21H1.375C1.10978 21 0.85543 20.8946 0.667893 20.7071C0.480357 20.5196 0.375 20.2652 0.375 20V8C0.375 7.73478 0.480357 7.48043 0.667893 7.29289C0.85543 7.10536 1.10978 7 1.375 7H4.375ZM4.375 9H2.375V19H16.375V9H14.375V11H12.375V9H6.375V11H4.375V9ZM6.375 7H12.375V5C12.375 4.20435 12.0589 3.44129 11.4963 2.87868C10.9337 2.31607 10.1706 2 9.375 2C8.57935 2 7.81629 2.31607 7.25368 2.87868C6.69107 3.44129 6.375 4.20435 6.375 5V7Z" />
</svg>
