<svg width="20" height="20" viewBox="0 0 20 20" role="img" xmlns="http://www.w3.org/2000/svg" aria-labelledby="catalogTitle">
  <title id="catalogTitle">catalog icon</title>
  <path d="M4.375 0.5C4.93312 0.5 5.48577 0.60993 6.00141 0.823512C6.51704 1.03709 6.98556 1.35015 7.38021 1.7448C7.77486 2.13945 8.08791 2.60796 8.30149 3.1236C8.51507 3.63923 8.625 4.19188 8.625 4.75V9H4.375C3.24783 9 2.16683 8.55223 1.3698 7.7552C0.572768 6.95817 0.125002 5.87717 0.125002 4.75C0.125002 3.62283 0.572768 2.54183 1.3698 1.7448C2.16683 0.947767 3.24783 0.5 4.375 0.5ZM4.375 11H8.625V15.25C8.625 16.0906 8.37574 16.9123 7.90875 17.6112C7.44175 18.3101 6.77799 18.8548 6.00141 19.1765C5.22482 19.4982 4.37029 19.5823 3.54587 19.4183C2.72145 19.2543 1.96417 18.8496 1.3698 18.2552C0.775425 17.6608 0.370652 16.9036 0.206664 16.0791C0.0426773 15.2547 0.126841 14.4002 0.448514 13.6236C0.770186 12.847 1.31492 12.1833 2.01383 11.7163C2.71274 11.2493 3.53443 11 4.375 11ZM14.875 0.5C16.0022 0.5 17.0832 0.947767 17.8802 1.7448C18.6772 2.54183 19.125 3.62283 19.125 4.75C19.125 5.87717 18.6772 6.95817 17.8802 7.7552C17.0832 8.55223 16.0022 9 14.875 9H10.625V4.75C10.625 3.62283 11.0728 2.54183 11.8698 1.7448C12.6668 0.947767 13.7478 0.5 14.875 0.5ZM10.625 11H14.875C15.7156 11 16.5373 11.2493 17.2362 11.7163C17.9351 12.1833 18.4798 12.847 18.8015 13.6236C19.1232 14.4002 19.2073 15.2547 19.0433 16.0791C18.8794 16.9036 18.4746 17.6608 17.8802 18.2552C17.2858 18.8496 16.5286 19.2543 15.7041 19.4183C14.8797 19.5823 14.0252 19.4982 13.2486 19.1765C12.472 18.8548 11.8083 18.3101 11.3413 17.6112C10.8743 16.9123 10.625 16.0906 10.625 15.25V11Z" />
</svg>
