<svg width="23" height="20" viewBox="0 0 23 20" role="img" xmlns="http://www.w3.org/2000/svg" aria-labelledBy="homeTitle">
  <title id="homeTitle">home icon</title>
  <path d="M18.875 19.9999H4.875C4.60978 19.9999 4.35543 19.8946 4.16789 19.707C3.98036 19.5195 3.875 19.2651 3.875 18.9999V9.99992H0.875L11.202 0.61192C11.3861 0.444398 11.6261 0.351562 11.875 0.351562C12.1239 0.351563 12.3639 0.444398 12.548 0.61192L22.875 9.99992H19.875V18.9999C19.875 19.2651 19.7696 19.5195 19.5821 19.707C19.3946 19.8946 19.1402 19.9999 18.875 19.9999ZM12.875 17.9999H17.875V8.15692L11.875 2.70292L5.875 8.15692V17.9999H10.875V11.9999H12.875V17.9999Z" />
</svg>