<svg width="76" height="20" viewBox="0 0 76 20" role="img" xmlns="http://www.w3.org/2000/svg" aria-labelledby="paypaylTitle">
  <title id="paypaylTitle">PayPal trademark</title>
  <g clip-path="url(#clip0_897_18742)">
    <path d="M28.8552 4.08984H24.7103C24.4267 4.08984 24.1855 4.2959 24.1412 4.5759L22.4649 15.2044C22.4315 15.4141 22.594 15.6032 22.8067 15.6032H24.7855C25.0691 15.6032 25.3103 15.3971 25.3546 15.1165L25.8067 12.2498C25.8503 11.9692 26.0921 11.7632 26.3752 11.7632H27.6873C30.4176 11.7632 31.9933 10.442 32.4049 7.82378C32.5903 6.67833 32.4127 5.77833 31.8764 5.14803C31.2873 4.4559 30.2424 4.08984 28.8552 4.08984ZM29.3333 7.97166C29.1067 9.45893 27.9703 9.45893 26.8715 9.45893H26.2461L26.6849 6.68136C26.7109 6.51348 26.8564 6.38984 27.0261 6.38984H27.3127C28.0612 6.38984 28.7673 6.38984 29.1321 6.81651C29.3497 7.07106 29.4164 7.44924 29.3333 7.97166Z" fill="#253B80" />
    <path d="M41.2449 7.92495H39.26C39.0909 7.92495 38.9449 8.04858 38.9188 8.21646L38.8309 8.77161L38.6921 8.5704C38.2624 7.94677 37.3042 7.73828 36.3479 7.73828C34.1546 7.73828 32.2812 9.39949 31.9164 11.7298C31.7267 12.8922 31.9964 14.0037 32.6558 14.7789C33.2606 15.4916 34.1261 15.7886 35.1558 15.7886C36.923 15.7886 37.903 14.6522 37.903 14.6522L37.8146 15.2037C37.7812 15.4146 37.9436 15.6037 38.1552 15.6037H39.943C40.2273 15.6037 40.4673 15.3977 40.5121 15.1171L41.5849 8.32374C41.6188 8.11464 41.457 7.92495 41.2449 7.92495ZM38.4782 11.788C38.2867 12.9219 37.3867 13.6831 36.2388 13.6831C35.6624 13.6831 35.2018 13.4983 34.9061 13.148C34.6127 12.8001 34.5012 12.3049 34.5946 11.7534C34.7733 10.6292 35.6885 9.84313 36.8188 9.84313C37.3824 9.84313 37.8406 10.0304 38.1424 10.3837C38.4449 10.7407 38.5649 11.2389 38.4782 11.788Z" fill="#253B80" />
    <path d="M51.8158 7.92383H49.8212C49.6309 7.92383 49.4521 8.01837 49.3442 8.17656L46.5933 12.2287L45.4273 8.33474C45.3539 8.0911 45.1291 7.92383 44.8746 7.92383H42.9146C42.6764 7.92383 42.5109 8.15656 42.5867 8.3808L44.7836 14.8281L42.7182 17.7438C42.5558 17.9735 42.7194 18.2893 43 18.2893H44.9921C45.1812 18.2893 45.3582 18.1972 45.4655 18.042L52.0994 8.46625C52.2582 8.23716 52.0952 7.92383 51.8158 7.92383Z" fill="#253B80" />
    <path d="M58.4194 4.08984H54.274C53.991 4.08984 53.7497 4.2959 53.7055 4.5759L52.0291 15.2044C51.9958 15.4141 52.1582 15.6032 52.3697 15.6032H54.497C54.6946 15.6032 54.8637 15.4589 54.8946 15.2626L55.3703 12.2498C55.414 11.9692 55.6558 11.7632 55.9388 11.7632H57.2503C59.9813 11.7632 61.5564 10.442 61.9685 7.82378C62.1546 6.67833 61.9758 5.77833 61.4394 5.14803C60.851 4.4559 59.8067 4.08984 58.4194 4.08984ZM58.8976 7.97166C58.6716 9.45893 57.5352 9.45893 56.4358 9.45893H55.811L56.2503 6.68136C56.2764 6.51348 56.4206 6.38984 56.591 6.38984H56.8776C57.6255 6.38984 58.3322 6.38984 58.697 6.81651C58.9146 7.07106 58.9806 7.44924 58.8976 7.97166Z" fill="#179BD7" />
    <path d="M70.8085 7.92495H68.8249C68.6545 7.92495 68.5097 8.04858 68.4842 8.21646L68.3964 8.77161L68.257 8.5704C67.8273 7.94677 66.8697 7.73828 65.9133 7.73828C63.72 7.73828 61.8473 9.39949 61.4824 11.7298C61.2933 12.8922 61.5618 14.0037 62.2212 14.7789C62.8273 15.4916 63.6915 15.7886 64.7212 15.7886C66.4885 15.7886 67.4685 14.6522 67.4685 14.6522L67.38 15.2037C67.3467 15.4146 67.5091 15.6037 67.7218 15.6037H69.5091C69.7921 15.6037 70.0333 15.3977 70.0776 15.1171L71.1509 8.32374C71.1836 8.11464 71.0212 7.92495 70.8085 7.92495ZM68.0418 11.788C67.8515 12.9219 66.9503 13.6831 65.8024 13.6831C65.2273 13.6831 64.7655 13.4983 64.4697 13.148C64.1764 12.8001 64.0661 12.3049 64.1582 11.7534C64.3382 10.6292 65.2521 9.84313 66.3824 9.84313C66.9461 9.84313 67.4042 10.0304 67.7061 10.3837C68.0097 10.7407 68.1297 11.2389 68.0418 11.788Z" fill="#179BD7" />
    <path d="M73.1485 4.38196L71.4473 15.205C71.414 15.4147 71.5764 15.6038 71.7879 15.6038H73.4982C73.7824 15.6038 74.0236 15.3977 74.0673 15.1171L75.7449 4.48924C75.7782 4.27954 75.6158 4.08984 75.4043 4.08984H73.4891C73.32 4.09045 73.1746 4.21409 73.1485 4.38196Z" fill="#179BD7" />
    <path d="M5.25212 17.6696L5.56909 15.6562L4.86303 15.6399H1.49152L3.83455 0.783518C3.84182 0.73867 3.86546 0.696851 3.9 0.667154C3.93455 0.637457 3.97879 0.621094 4.02485 0.621094H9.7097C11.597 0.621094 12.8994 1.01382 13.5794 1.78897C13.8982 2.15261 14.1012 2.53261 14.1994 2.95079C14.3024 3.38958 14.3042 3.91382 14.2036 4.55322L14.1964 4.59988V5.00958L14.5151 5.19019C14.7836 5.33261 14.997 5.49564 15.1606 5.68231C15.4333 5.99322 15.6097 6.38837 15.6842 6.85685C15.7612 7.33867 15.7358 7.912 15.6097 8.56109C15.4642 9.30776 15.2291 9.95807 14.9115 10.4902C14.6194 10.9805 14.2473 11.3872 13.8055 11.7023C13.3836 12.0017 12.8824 12.229 12.3158 12.3744C11.7667 12.5175 11.1406 12.5896 10.4539 12.5896H10.0115C9.69515 12.5896 9.38788 12.7035 9.14667 12.9078C8.90485 13.1162 8.74485 13.4011 8.69576 13.7126L8.66242 13.8938L8.10242 17.4423L8.07697 17.5726C8.0703 17.6138 8.05879 17.6344 8.04182 17.6484C8.02667 17.6611 8.00485 17.6696 7.98364 17.6696H5.25212Z" fill="#253B80" />
    <path d="M14.817 4.64648C14.8 4.75497 14.7806 4.86588 14.7588 4.97982C14.0091 8.82891 11.4443 10.1586 8.16849 10.1586H6.50061C6.10001 10.1586 5.76243 10.4495 5.70001 10.8447L4.84607 16.2604L4.60425 17.7956C4.56365 18.055 4.76365 18.2889 5.02546 18.2889H7.98364C8.33395 18.2889 8.63152 18.0344 8.68667 17.6889L8.71577 17.5386L9.27274 14.0041L9.30849 13.8101C9.36304 13.4635 9.66122 13.2089 10.0115 13.2089H10.4539C13.32 13.2089 15.5636 12.0453 16.2194 8.678C16.4933 7.27133 16.3515 6.09679 15.6267 5.27073C15.4073 5.02164 15.1352 4.81497 14.817 4.64648Z" fill="#179BD7" />
    <path d="M14.0327 4.33354C13.9182 4.30021 13.8 4.26991 13.6788 4.24264C13.557 4.21597 13.4321 4.19233 13.3036 4.17173C12.854 4.099 12.3612 4.06445 11.8333 4.06445H7.37759C7.26789 4.06445 7.16365 4.0893 7.07032 4.13415C6.86486 4.23294 6.71213 4.42748 6.67516 4.66567L5.72728 10.6693L5.70001 10.8445C5.76244 10.4493 6.10001 10.1584 6.50062 10.1584H8.1685C11.4443 10.1584 14.0091 8.82809 14.7588 4.9796C14.7812 4.86567 14.8 4.75476 14.817 4.64627C14.6273 4.54567 14.4218 4.4596 14.2006 4.38627C14.1461 4.36809 14.0897 4.35051 14.0327 4.33354Z" fill="#222D65" />
    <path d="M6.67517 4.66606C6.71214 4.42788 6.86487 4.23333 7.07032 4.13515C7.16426 4.0903 7.2679 4.06545 7.37759 4.06545H11.8334C12.3612 4.06545 12.854 4.1 13.3037 4.17273C13.4321 4.19333 13.557 4.21697 13.6788 4.24364C13.8 4.27091 13.9182 4.30121 14.0327 4.33455C14.0897 4.35152 14.1461 4.36909 14.2012 4.38667C14.4224 4.46 14.6279 4.54667 14.8176 4.64667C15.0406 3.22424 14.8158 2.25576 14.0467 1.37879C13.1988 0.413333 11.6685 0 9.71032 0H4.02547C3.62547 0 3.28426 0.290909 3.22244 0.686667L0.854565 15.6958C0.807898 15.9927 1.03699 16.2606 1.33638 16.2606H4.84608L5.72729 10.6697L6.67517 4.66606Z" fill="#253B80" />
  </g>
  <defs>
    <clipPath id="clip0_897_18742">
      <rect width="75.1515" height="20" fill="white" transform="translate(0.848511)" />
    </clipPath>
  </defs>
</svg>

