<svg data-v-933f43b6="" xmlns="http://www.w3.org/2000/svg" viewBox="0 0 20 20"><path data-v-933f43b6="" d="M8.5 4a.5.5 0 0 1 .09.992L8.5 5h-3a1.5 1.5 0 0 0-1.493 1.356L4 6.5v8a1.5 1.5 0 0 0 1.356 1.493L5.5 16h8a1.5 1.5 0 0 0 1.493-1.356L15 14.5v-1a.5.5 0 0 1 .992-.09l.008.09v1a2.5 2.5 0 0 1-2.336 2.495L13.5 17h-8a2.5 2.5 0 0 1-2.495-2.336L3 14.5v-8a2.5 2.5 0 0 1 2.336-2.495L5.5 4zm3.878-.422c0-.448.461-.703.816-.516l.074.047.062.053 4.497 4.42a.588.588 0 0 1 .107.688l-.05.08-.057.065-4.497 4.423a.558.558 0 0 1-.929-.247l-.018-.087-.005-.082v-2.096l-.258.023a7.669 7.669 0 0 0-.742.117c-1.534.318-3.014 1.112-4.445 2.39-.39.348-.992.02-.928-.506.486-3.988 2.482-6.23 5.884-6.602l.264-.025.225-.015zm1 1.033v2.032l-1.152.077c-1.573.126-2.734.674-3.563 1.569-.669.721-1.178 1.728-1.476 3.067 1.415-1.061 2.91-1.726 4.487-1.958l.348-.044 1.356-.122v2.156L16.824 8z"></path></svg>