<svg width="4" height="16" viewBox="0 0 4 16" role="img" xmlns="http://www.w3.org/2000/svg" aria-labelledby="dotsTitle">
  <title id="dotsTitle">three dots icon</title>
    <path d="M2.00004 0.5C1.08337 0.5 0.333374 1.25 0.333374 2.16667C0.333374 3.08333 1.08337 3.83333 2.00004 3.83333C2.91671 3.83333 3.66671 3.08333 3.66671 2.16667C3.66671 1.25 2.91671 0.5 2.00004 0.5ZM2.00004 12.1667C1.08337 12.1667 0.333374 12.9167 0.333374 13.8333C0.333374 14.75 1.08337 15.5 2.00004 15.5C2.91671 15.5 3.66671 14.75 3.66671 13.8333C3.66671 12.9167 2.91671 12.1667 2.00004 12.1667ZM2.00004 6.33333C1.08337 6.33333 0.333374 7.08333 0.333374 8C0.333374 8.91667 1.08337 9.66667 2.00004 9.66667C2.91671 9.66667 3.66671 8.91667 3.66671 8C3.66671 7.08333 2.91671 6.33333 2.00004 6.33333Z" />
</svg>
